<?xml version="1.0" encoding="utf-8"?>
<!-- Generator: Adobe Illustrator 25.4.1, SVG Export Plug-In . SVG Version: 6.00 Build 0)  -->
<svg version="1.1"
	 id="svg1" inkscape:version="0.37" sodipodi:docbase="/home/chrizz/temp" sodipodi:docname="BUS-Logo-BVG.svg" sodipodi:version="0.32" xmlns:inkscape="http://www.inkscape.org/namespaces/inkscape" xmlns:sodipodi="http://sodipodi.sourceforge.net/DTD/sodipodi-0.dtd"
	 xmlns="http://www.w3.org/2000/svg" xmlns:xlink="http://www.w3.org/1999/xlink" x="0px" y="0px" viewBox="0 0 15 15"
	 style="enable-background:new 0 0 15 15;" xml:space="preserve">
<style type="text/css">
	.st0{fill-rule:evenodd;clip-rule:evenodd;fill:#999999;}
	.st1{fill-rule:evenodd;clip-rule:evenodd;fill:#FFFFFF;}
</style>
<g>
	<path class="st0" d="M15,7.5C15,3.395,11.605,0,7.5,0S0,3.395,0,7.5S3.395,15,7.5,15S15,11.605,15,7.5"/>
	<path class="st1" d="M5.211,8.684c0,0.947-0.632,1.421-1.895,1.421H1.737V5.053h1.737c1.263,0,1.737,0.553,1.737,1.263
		c0,0.632-0.316,0.947-0.868,1.184C4.895,7.579,5.211,8.053,5.211,8.684 M3.947,8.605c0-0.395-0.158-0.632-0.553-0.632H2.921v1.184
		h0.395C3.711,9.158,3.947,9,3.947,8.605 M3.868,6.632c0-0.395-0.237-0.553-0.632-0.553H2.921v1.105h0.237
		C3.632,7.184,3.868,6.947,3.868,6.632 M9.711,8.289c0,1.184-0.632,1.895-1.895,1.895S5.921,9.474,5.921,8.447V5.053h1.342v3.237
		c0,0.553,0.158,0.789,0.553,0.789c0.395,0,0.632-0.237,0.632-0.868V5.053h1.263V8.289L9.711,8.289z M13.816,8.526
		c0,0.947-0.711,1.658-1.895,1.658c-0.395,0-0.868-0.079-1.342-0.158l0.079-1.105c0.395,0.158,0.711,0.237,1.105,0.237
		c0.395,0,0.711-0.158,0.711-0.395c0-0.316-0.158-0.474-0.868-0.711c-0.711-0.237-1.105-0.711-1.105-1.5
		c0-0.868,0.711-1.5,1.816-1.5c0.395,0,0.789,0.079,1.263,0.158L13.5,6.158C13.184,6,12.789,5.921,12.474,5.921
		c-0.474,0-0.632,0.158-0.632,0.474c0,0.237,0.158,0.395,0.789,0.711C13.5,7.421,13.816,7.816,13.816,8.526"/>
</g>
</svg>
