<?xml version="1.0" encoding="utf-8"?>
<!-- Generator: Adobe Illustrator 25.4.1, SVG Export Plug-In . SVG Version: 6.00 Build 0)  -->
<svg version="1.1"
	 id="svg1" inkscape:version="0.37" sodipodi:docbase="/home/chrizz/temp" sodipodi:docname="BUS-Logo-BVG.svg" sodipodi:version="0.32" xmlns:inkscape="http://www.inkscape.org/namespaces/inkscape" xmlns:sodipodi="http://sodipodi.sourceforge.net/DTD/sodipodi-0.dtd"
	 xmlns="http://www.w3.org/2000/svg" xmlns:xlink="http://www.w3.org/1999/xlink" x="0px" y="0px" viewBox="0 0 19 19"
	 style="enable-background:new 0 0 19 19;" xml:space="preserve">
<style type="text/css">
	.st0{fill:#FFFFFF;}
	.st1{fill:#999999;}
</style>
<g>
	<path class="st0" d="M0,9.5C0,14.7,4.3,19,9.5,19S19,14.7,19,9.5S14.7,0,9.5,0S0,4.3,0,9.5"/>
	<path class="st1" d="M16.2,16.3c-0.3,0.1-1.3,0.3-2.4,0.3c-3.4,0-5-1.6-6.8-1.9l0.9-3.9h4.3l0.6-2.5H8.4l0.7-2.9h4.5l0.6-2.5h-8
		L3.5,14.6C3,14.7,2.2,15,1.9,15.2C0.7,13.6,0,11.6,0,9.5C0,4.3,4.3,0,9.5,0S19,4.3,19,9.5C19,12.1,17.9,14.5,16.2,16.3 M9.5,19
		c2,0,3.8-0.6,5.3-1.6c-0.3,0.1-0.7,0.1-1.2,0.1c-4.3,0-5.3-2.1-8.5-2.1c-1.1,0-2,0.3-2.5,0.6C4.2,17.8,6.8,19,9.5,19"/>
</g>
</svg>
