<?xml version="1.0" encoding="utf-8"?>
<!-- Generator: Adobe Illustrator 25.4.1, SVG Export Plug-In . SVG Version: 6.00 Build 0)  -->
<svg version="1.1"
	 id="svg1" inkscape:version="0.37" sodipodi:docbase="/home/chrizz/temp" sodipodi:docname="BUS-Logo-BVG.svg" sodipodi:version="0.32" xmlns:inkscape="http://www.inkscape.org/namespaces/inkscape" xmlns:sodipodi="http://sodipodi.sourceforge.net/DTD/sodipodi-0.dtd"
	 xmlns="http://www.w3.org/2000/svg" xmlns:xlink="http://www.w3.org/1999/xlink" x="0px" y="0px" viewBox="0 0 15 15"
	 style="enable-background:new 0 0 15 15;" xml:space="preserve">
<style type="text/css">
	.st0{fill-rule:evenodd;clip-rule:evenodd;fill:#999999;}
	.st1{fill-rule:evenodd;clip-rule:evenodd;fill:#FFFFFF;}
</style>
<g>
	<polyline class="st0" points="15,15 15,0 0,0 0,15 	"/>
	<polyline class="st1" points="3.43768,5.27136 3.43768,4.51568 0.4017,4.51568 0.4017,5.27136 1.45762,5.27136 1.45762,9.41443 
		2.38161,9.41443 2.38161,5.27136 	"/>
	<path class="st1" d="M5.66625,5.78438c-0.0675-0.03-0.20625-0.04313-0.27187-0.04313c-0.38063,0-0.645,0.16125-0.87188,0.54187
		L4.455,5.80688H3.66375v3.6075h0.87188v-1.9725c0-0.45563,0.11812-0.92438,0.63938-0.92438c0.08062,0,0.16125,0.015,0.24187,0.0375
		"/>
	<path class="st1" d="M8.75063,9.41438C8.72062,9.195,8.685,8.96812,8.685,8.74687v-1.98c0-0.63-0.43313-1.02562-1.27688-1.02562
		c-0.3825,0-0.82875,0.04313-1.18125,0.20438L6.37313,6.555C6.6225,6.42188,6.9675,6.36375,7.23188,6.36375
		c0.38062,0,0.60938,0.16875,0.60938,0.54375v0.40313c-0.13313-0.0225-0.30188-0.06-0.55875-0.06
		c-0.82125,0-1.38562,0.40313-1.38562,1.15125c0,0.6675,0.36,1.07812,1.06313,1.07812c0.40313,0,0.705-0.17625,0.90938-0.49125
		L7.935,9.41438 M7.84125,8.32875c0,0.3225-0.27938,0.56437-0.60938,0.56437c-0.3225,0-0.45375-0.22687-0.45375-0.53438
		c0-0.31687,0.18188-0.60187,0.5925-0.60187c0.21375,0,0.375,0.03,0.47063,0.06563V8.32875z"/>
	<path class="st1" d="M14.24063,9.41438V6.87c0-0.63-0.3075-1.12875-0.9825-1.12875c-0.48375,0-0.79875,0.24188-0.93187,0.54938
		c-0.11625-0.25688-0.345-0.54938-0.915-0.54938c-0.42562,0-0.76312,0.21937-0.90937,0.54938l-0.0675-0.48375H9.66562v3.6075
		h0.87188v-2.265c0-0.36,0.13875-0.78562,0.52125-0.78562c0.33,0,0.46125,0.22687,0.46125,0.57188v2.47875h0.86625v-2.28
		c0-0.36,0.13125-0.77063,0.51937-0.77063c0.33,0,0.46313,0.25688,0.46313,0.57188v2.47875"/>
</g>
</svg>
