<?xml version="1.0" encoding="utf-8"?>
<!-- Generator: Adobe Illustrator 25.4.1, SVG Export Plug-In . SVG Version: 6.00 Build 0)  -->
<svg version="1.1"
	 id="svg1" inkscape:version="0.37" sodipodi:docbase="/home/chrizz/temp" sodipodi:docname="BUS-Logo-BVG.svg" sodipodi:version="0.32" xmlns:inkscape="http://www.inkscape.org/namespaces/inkscape" xmlns:sodipodi="http://sodipodi.sourceforge.net/DTD/sodipodi-0.dtd"
	 xmlns="http://www.w3.org/2000/svg" xmlns:xlink="http://www.w3.org/1999/xlink" x="0px" y="0px" viewBox="0 0 19 19"
	 style="enable-background:new 0 0 19 19;" xml:space="preserve">
<style type="text/css">
	.st0{fill-rule:evenodd;clip-rule:evenodd;fill:#999999;}
	.st1{fill-rule:evenodd;clip-rule:evenodd;fill:#FFFFFF;}
</style>
<g>
	<polyline class="st0" points="19,19 19,0 0,0 0,19 	"/>
	<polyline class="st1" points="4.3544,6.67705 4.3544,5.71985 0.50882,5.71985 0.50882,6.67705 1.84632,6.67705 1.84632,11.92495 
		3.0167,11.92495 3.0167,6.67705 	"/>
	<path class="st1" d="M7.17725,7.32688c-0.0855-0.038-0.26125-0.05463-0.34438-0.05463c-0.48213,0-0.817,0.20425-1.10438,0.68638
		L5.643,7.35538H4.64075v4.5695h1.10437v-2.4985c0-0.57712,0.14963-1.17087,0.80988-1.17087c0.10212,0,0.20425,0.019,0.30638,0.0475
		"/>
	<path class="st1" d="M11.08413,11.92488c-0.038-0.27787-0.08313-0.56525-0.08313-0.8455v-2.508
		c0-0.798-0.54862-1.29912-1.61738-1.29912c-0.4845,0-1.04975,0.05463-1.49625,0.25887L8.07263,8.303
		C8.3885,8.13437,8.8255,8.06075,9.16038,8.06075c0.48212,0,0.77187,0.21375,0.77187,0.68875v0.51062
		c-0.16862-0.0285-0.38237-0.076-0.70775-0.076c-1.04025,0-1.75512,0.51062-1.75512,1.45825c0,0.8455,0.456,1.36563,1.34662,1.36563
		c0.51062,0,0.893-0.22325,1.15188-0.62225l0.08313,0.53913 M9.93225,10.54975c0,0.4085-0.35388,0.71487-0.77187,0.71487
		c-0.4085,0-0.57475-0.28737-0.57475-0.67688c0-0.40137,0.23038-0.76237,0.7505-0.76237c0.27075,0,0.475,0.038,0.59612,0.08313
		V10.54975z"/>
	<path class="st1" d="M18.03812,11.92488V8.702c0-0.798-0.3895-1.42975-1.2445-1.42975c-0.61275,0-1.01175,0.30638-1.18037,0.69587
		c-0.14725-0.32538-0.437-0.69587-1.159-0.69587c-0.53912,0-0.96662,0.27787-1.15187,0.69587l-0.0855-0.61275h-0.97375v4.5695
		h1.10437v-2.869c0-0.456,0.17575-0.99512,0.66025-0.99512c0.418,0,0.58425,0.28738,0.58425,0.72437v3.13975h1.09725v-2.888
		c0-0.456,0.16625-0.97612,0.65788-0.97612c0.418,0,0.58663,0.32538,0.58663,0.72437v3.13975"/>
</g>
</svg>
