<?xml version="1.0" encoding="utf-8"?>
<!-- Generator: Adobe Illustrator 25.4.1, SVG Export Plug-In . SVG Version: 6.00 Build 0)  -->
<svg version="1.1"
	 id="svg1" inkscape:version="0.37" sodipodi:docbase="/home/chrizz/temp" sodipodi:docname="BUS-Logo-BVG.svg" sodipodi:version="0.32" xmlns:inkscape="http://www.inkscape.org/namespaces/inkscape" xmlns:sodipodi="http://sodipodi.sourceforge.net/DTD/sodipodi-0.dtd"
	 xmlns="http://www.w3.org/2000/svg" xmlns:xlink="http://www.w3.org/1999/xlink" x="0px" y="0px" viewBox="0 0 15 15"
	 style="enable-background:new 0 0 15 15;" xml:space="preserve">
<style type="text/css">
	.st0{fill-rule:evenodd;clip-rule:evenodd;fill:#FFFFFF;}
	.st1{fill-rule:evenodd;clip-rule:evenodd;fill:#999999;}
</style>
<path class="st0" d="M7.667,11.878c-1.798,0-3.583-1.089-4.563-2.498v2.337c1.033,0.926,2.926,1.665,4.563,1.665
	c2.941,0,4.685-2.094,4.685-3.894c0-4.456-6.752-2.55-6.752-5.261c0-0.644,0.591-1.194,1.624-1.194c1.826,0,3.383,0.98,4.417,2.094
	V3.18c-1.194-0.928-2.698-1.478-4.376-1.478c-2.013,0-4.256,1.235-4.256,3.531c0,4.376,6.644,2.806,6.644,5.341
	C9.654,11.246,8.769,11.878,7.667,11.878z"/>
<g id="g9456" transform="matrix(25,0,0,25,1251.2276,838.02136)">
	<path id="path9458" class="st1" d="M-50.049-33.221c0-0.166,0.134-0.3,0.3-0.3c0.166,0,0.3,0.134,0.3,0.3
		c0,0.166-0.134,0.3-0.3,0.3C-49.915-32.921-50.049-33.055-50.049-33.221z M-49.583-33.394v0.078
		c-0.041-0.045-0.104-0.084-0.177-0.084c-0.041,0-0.065,0.022-0.065,0.048c0,0.108,0.27,0.032,0.27,0.21
		c0,0.072-0.07,0.156-0.187,0.156c-0.065,0-0.141-0.03-0.183-0.067v-0.093c0.039,0.056,0.111,0.1,0.183,0.1
		c0.044,0,0.079-0.025,0.079-0.052c0-0.101-0.266-0.039-0.266-0.214c0-0.092,0.09-0.141,0.17-0.141
		C-49.691-33.453-49.631-33.431-49.583-33.394"/>
</g>
</svg>
