<?xml version="1.0" encoding="utf-8"?>
<!-- Generator: Adobe Illustrator 25.4.1, SVG Export Plug-In . SVG Version: 6.00 Build 0)  -->
<svg version="1.1"
	 id="svg1" inkscape:version="0.37" sodipodi:docbase="/home/chrizz/temp" sodipodi:docname="BUS-Logo-BVG.svg" sodipodi:version="0.32" xmlns:inkscape="http://www.inkscape.org/namespaces/inkscape" xmlns:sodipodi="http://sodipodi.sourceforge.net/DTD/sodipodi-0.dtd"
	 xmlns="http://www.w3.org/2000/svg" xmlns:xlink="http://www.w3.org/1999/xlink" x="0px" y="0px" viewBox="0 0 19 19"
	 style="enable-background:new 0 0 19 19;" xml:space="preserve">
<style type="text/css">
	.st0{fill-rule:evenodd;clip-rule:evenodd;fill:#A5027D;}
	.st1{fill-rule:evenodd;clip-rule:evenodd;fill:#FFFFFF;}
</style>
<g>
	<path class="st0" d="M19,9.5C19,4.3,14.7,0,9.5,0S0,4.3,0,9.5S4.3,19,9.5,19S19,14.7,19,9.5"/>
	<path class="st1" d="M6.6,11c0,1.2-0.8,1.8-2.4,1.8h-2V6.4h2.2C6,6.4,6.6,7.1,6.6,8c0,0.8-0.4,1.2-1.1,1.5C6.2,9.6,6.6,10.2,6.6,11
		 M5,10.9c0-0.5-0.2-0.8-0.7-0.8H3.7v1.5h0.5C4.7,11.6,5,11.4,5,10.9 M4.9,8.4c0-0.5-0.3-0.7-0.8-0.7H3.7v1.4H4
		C4.6,9.1,4.9,8.8,4.9,8.4 M12.3,10.5c0,1.5-0.8,2.4-2.4,2.4S7.5,12,7.5,10.7V6.4h1.7v4.1c0,0.7,0.2,1,0.7,1s0.8-0.3,0.8-1.1v-4h1.6
		V10.5L12.3,10.5z M17.5,10.8c0,1.2-0.9,2.1-2.4,2.1c-0.5,0-1.1-0.1-1.7-0.2l0.1-1.4c0.5,0.2,0.9,0.3,1.4,0.3s0.9-0.2,0.9-0.5
		c0-0.4-0.2-0.6-1.1-0.9c-0.9-0.3-1.4-0.9-1.4-1.9c0-1.1,0.9-1.9,2.3-1.9c0.5,0,1,0.1,1.6,0.2l-0.1,1.2c-0.4-0.2-0.9-0.3-1.3-0.3
		c-0.6,0-0.8,0.2-0.8,0.6c0,0.3,0.2,0.5,1,0.9C17.1,9.4,17.5,9.9,17.5,10.8"/>
</g>
</svg>
