<?xml version="1.0" encoding="utf-8"?>
<!-- Generator: Adobe Illustrator 25.4.1, SVG Export Plug-In . SVG Version: 6.00 Build 0)  -->
<svg version="1.1"
	 id="svg1" inkscape:version="0.37" sodipodi:docbase="/home/chrizz/temp" sodipodi:docname="BUS-Logo-BVG.svg" sodipodi:version="0.32" xmlns:inkscape="http://www.inkscape.org/namespaces/inkscape" xmlns:sodipodi="http://sodipodi.sourceforge.net/DTD/sodipodi-0.dtd"
	 xmlns="http://www.w3.org/2000/svg" xmlns:xlink="http://www.w3.org/1999/xlink" x="0px" y="0px" viewBox="0 0 15 15"
	 style="enable-background:new 0 0 15 15;" xml:space="preserve">
<style type="text/css">
	.st0{fill:#FFFFFF;}
	.st1{fill:#0080BA;}
</style>
<g>
	<path class="st0" d="M0,7.5C0,11.6,3.4,15,7.5,15S15,11.6,15,7.5S11.6,0,7.5,0S0,3.4,0,7.5"/>
	<path class="st1" d="M12.8,12.8c-0.3,0.1-1,0.3-1.9,0.3c-2.7,0-3.9-1.3-5.4-1.5l0.7-3.1h3.4l0.4-2H6.6l0.5-2.3h3.6l0.4-2H4.9
		l-2.1,9.3c-0.4,0-1,0.3-1.2,0.5C0.6,10.8,0,9.2,0,7.5C0,3.4,3.4,0,7.5,0S15,3.4,15,7.5C15,9.6,14.1,11.5,12.8,12.8 M7.5,15
		c1.5,0,3-0.5,4.2-1.3c-0.3,0.1-0.6,0.1-0.9,0.1c-3.4,0-4.2-1.7-6.7-1.7c-0.9,0-1.6,0.2-2,0.5C3.4,14.1,5.3,15,7.5,15"/>
</g>
</svg>
