<?xml version="1.0" encoding="utf-8"?>
<!-- Generator: Adobe Illustrator 25.4.1, SVG Export Plug-In . SVG Version: 6.00 Build 0)  -->
<svg version="1.1"
	 id="svg1" inkscape:version="0.37" sodipodi:docbase="/home/chrizz/temp" sodipodi:docname="BUS-Logo-BVG.svg" sodipodi:version="0.32" xmlns:inkscape="http://www.inkscape.org/namespaces/inkscape" xmlns:sodipodi="http://sodipodi.sourceforge.net/DTD/sodipodi-0.dtd"
	 xmlns="http://www.w3.org/2000/svg" xmlns:xlink="http://www.w3.org/1999/xlink" x="0px" y="0px" viewBox="0 0 19 19"
	 style="enable-background:new 0 0 19 19;" xml:space="preserve">
<style type="text/css">
	.st0{fill-rule:evenodd;clip-rule:evenodd;fill:#FFFFFF;}
	.st1{fill-rule:evenodd;clip-rule:evenodd;fill:#008940;}
</style>
<path class="st0" d="M9.711,15.045c-2.278,0-4.539-1.379-5.78-3.164v2.96c1.309,1.173,3.706,2.109,5.78,2.109
	c3.725,0,5.935-2.653,5.935-4.933c0-5.644-8.552-3.23-8.552-6.664c0-0.816,0.748-1.513,2.057-1.513c2.313,0,4.286,1.241,5.594,2.653
	V4.028c-1.513-1.175-3.418-1.872-5.543-1.872c-2.55,0-5.39,1.565-5.39,4.473c0,5.543,8.416,3.554,8.416,6.765
	C12.228,14.245,11.107,15.045,9.711,15.045z"/>
<g id="g9456_00000062182886932479590570000005516338637304353426_" transform="matrix(25,0,0,25,1251.2276,838.02136)">
	<path id="path9458_00000015326304649434725990000014461386061196234656_" class="st1" d="M-50.049-33.141
		c0-0.21,0.17-0.38,0.38-0.38c0.21,0,0.38,0.17,0.38,0.38s-0.17,0.38-0.38,0.38C-49.879-32.761-50.049-32.931-50.049-33.141z
		 M-49.459-33.36v0.099c-0.052-0.056-0.131-0.106-0.224-0.106c-0.052,0-0.082,0.028-0.082,0.061c0,0.137,0.342,0.041,0.342,0.267
		c0,0.091-0.088,0.197-0.237,0.197c-0.083,0-0.179-0.037-0.231-0.084v-0.118c0.05,0.071,0.14,0.127,0.231,0.127
		c0.056,0,0.101-0.032,0.101-0.066c0-0.128-0.337-0.049-0.337-0.271c0-0.116,0.114-0.179,0.216-0.179
		C-49.596-33.435-49.52-33.407-49.459-33.36"/>
</g>
</svg>
